<?xml version="1.0" encoding="UTF-8" standalone="no"?>
<!-- generated by Grace-5.1.25 -->

<svg
   xmlns:dc="http://purl.org/dc/elements/1.1/"
   xmlns:cc="http://creativecommons.org/ns#"
   xmlns:rdf="http://www.w3.org/1999/02/22-rdf-syntax-ns#"
   xmlns:svg="http://www.w3.org/2000/svg"
   xmlns="http://www.w3.org/2000/svg"
   xmlns:sodipodi="http://sodipodi.sourceforge.net/DTD/sodipodi-0.dtd"
   xmlns:inkscape="http://www.inkscape.org/namespaces/inkscape"
   xml:space="preserve"
   width="90mm"
   height="60mm"
   viewBox="0 0 255.11812 170.07874"
   id="svg4821"
   version="1.1"
   inkscape:version="0.91 r13725"
   sodipodi:docname="sigma.svg"><metadata
     id="metadata5163"><rdf:RDF><cc:Work
         rdf:about=""><dc:format>image/svg+xml</dc:format><dc:type
           rdf:resource="http://purl.org/dc/dcmitype/StillImage" /><dc:title></dc:title></cc:Work></rdf:RDF></metadata><defs
     id="defs5161" /><sodipodi:namedview
     pagecolor="#ffffff"
     bordercolor="#666666"
     borderopacity="1"
     objecttolerance="10"
     gridtolerance="10"
     guidetolerance="10"
     inkscape:pageopacity="0"
     inkscape:pageshadow="2"
     inkscape:window-width="1317"
     inkscape:window-height="744"
     id="namedview5159"
     showgrid="false"
     inkscape:zoom="2.54"
     inkscape:cx="227.75186"
     inkscape:cy="123.43358"
     inkscape:window-x="49"
     inkscape:window-y="24"
     inkscape:window-maximized="1"
     inkscape:current-layer="svg4821"
     inkscape:document-units="mm"
     units="mm" /><g
     id="g4829"
     style="fill:none;stroke:#000000;stroke-width:0.8613848;stroke-linecap:butt;stroke-linejoin:miter;stroke-dasharray:0.93832771,2.81498317;stroke-miterlimit:4;stroke-dashoffset:0"
     transform="matrix(0.34861118,0,0,-0.34794195,4.5710547,181.68941)"><path
       style="stroke-width:0.8613848;stroke-miterlimit:4;stroke-dasharray:0.93832771,2.81498317;stroke-dashoffset:0"
       inkscape:connector-curvature="0"
       id="path4831"
       d="m 122.4,91.8 0,428.4" /><path
       style="stroke-width:0.8613848;stroke-miterlimit:4;stroke-dasharray:0.93832771,2.81498317;stroke-dashoffset:0"
       inkscape:connector-curvature="0"
       id="path4833"
       d="m 183.6,91.8 0,428.4" /><path
       style="stroke-width:0.8613848;stroke-miterlimit:4;stroke-dasharray:0.93832771,2.81498317;stroke-dashoffset:0"
       inkscape:connector-curvature="0"
       id="path4835"
       d="m 244.8,91.8 0,428.4" /><path
       style="stroke-width:0.8613848;stroke-miterlimit:4;stroke-dasharray:0.93832771,2.81498317;stroke-dashoffset:0"
       inkscape:connector-curvature="0"
       id="path4837"
       d="m 306,91.8 0,428.4" /><path
       style="stroke-width:0.8613848;stroke-miterlimit:4;stroke-dasharray:0.93832771,2.81498317;stroke-dashoffset:0"
       inkscape:connector-curvature="0"
       id="path4839"
       d="m 367.2,91.8 0,428.4" /><path
       style="stroke-width:0.8613848;stroke-miterlimit:4;stroke-dasharray:0.93832771,2.81498317;stroke-dashoffset:0"
       inkscape:connector-curvature="0"
       id="path4841"
       d="m 428.4,91.8 0,428.4" /><path
       style="stroke-width:0.8613848;stroke-miterlimit:4;stroke-dasharray:0.93832771,2.81498317;stroke-dashoffset:0"
       inkscape:connector-curvature="0"
       id="path4843"
       d="m 489.6,91.8 0,428.4" /><path
       style="stroke-width:0.8613848;stroke-miterlimit:4;stroke-dasharray:0.93832771,2.81498317;stroke-dashoffset:0"
       inkscape:connector-curvature="0"
       id="path4845"
       d="m 550.8,91.8 0,428.4" /><path
       style="stroke-width:0.8613848;stroke-miterlimit:4;stroke-dasharray:0.93832771,2.81498317;stroke-dashoffset:0"
       inkscape:connector-curvature="0"
       id="path4847"
       d="m 612,91.8 0,428.4" /><path
       style="stroke-width:0.8613848;stroke-miterlimit:4;stroke-dasharray:0.93832771,2.81498317;stroke-dashoffset:0"
       inkscape:connector-curvature="0"
       id="path4849"
       d="m 673.2,91.8 0,428.4" /></g><g
     id="g4851"
     style="fill:none;stroke:#000000;stroke-width:0.8613848;stroke-linecap:butt;stroke-linejoin:miter;stroke-dasharray:4.69163861,2.81498317;stroke-miterlimit:4;stroke-dashoffset:0"
     transform="matrix(0.34861118,0,0,-0.34794195,4.5710547,181.68941)"><path
       style="stroke-width:0.8613848;stroke-miterlimit:4;stroke-dasharray:4.69163861,2.81498317;stroke-dashoffset:0"
       inkscape:connector-curvature="0"
       id="path4853"
       d="m 91.8,91.8 0,428.4" /><path
       style="stroke-width:0.8613848;stroke-miterlimit:4;stroke-dasharray:4.69163861,2.81498317;stroke-dashoffset:0"
       inkscape:connector-curvature="0"
       id="path4855"
       d="m 153,91.8 0,428.4" /><path
       style="stroke-width:0.8613848;stroke-miterlimit:4;stroke-dasharray:4.69163861,2.81498317;stroke-dashoffset:0"
       inkscape:connector-curvature="0"
       id="path4857"
       d="m 214.2,91.8 0,428.4" /><path
       style="stroke-width:0.8613848;stroke-miterlimit:4;stroke-dasharray:4.69163861,2.81498317;stroke-dashoffset:0"
       inkscape:connector-curvature="0"
       id="path4859"
       d="m 275.4,91.8 0,428.4" /><path
       style="stroke-width:0.8613848;stroke-miterlimit:4;stroke-dasharray:4.69163861,2.81498317;stroke-dashoffset:0"
       inkscape:connector-curvature="0"
       id="path4861"
       d="m 336.6,91.8 0,428.4" /><path
       style="stroke-width:0.8613848;stroke-miterlimit:4;stroke-dasharray:4.69163861,2.81498317;stroke-dashoffset:0"
       inkscape:connector-curvature="0"
       id="path4863"
       d="m 397.8,91.8 0,428.4" /><path
       style="stroke-width:0.8613848;stroke-miterlimit:4;stroke-dasharray:4.69163861,2.81498317;stroke-dashoffset:0"
       inkscape:connector-curvature="0"
       id="path4865"
       d="m 459,91.8 0,428.4" /><path
       style="stroke-width:0.8613848;stroke-miterlimit:4;stroke-dasharray:4.69163861,2.81498317;stroke-dashoffset:0"
       inkscape:connector-curvature="0"
       id="path4867"
       d="m 520.2,91.8 0,428.4" /><path
       style="stroke-width:0.8613848;stroke-miterlimit:4;stroke-dasharray:4.69163861,2.81498317;stroke-dashoffset:0"
       inkscape:connector-curvature="0"
       id="path4869"
       d="m 581.4,91.8 0,428.4" /><path
       style="stroke-width:0.8613848;stroke-miterlimit:4;stroke-dasharray:4.69163861,2.81498317;stroke-dashoffset:0"
       inkscape:connector-curvature="0"
       id="path4871"
       d="m 642.6,91.8 0,428.4" /><path
       style="stroke-width:0.8613848;stroke-miterlimit:4;stroke-dasharray:4.69163861,2.81498317;stroke-dashoffset:0"
       inkscape:connector-curvature="0"
       id="path4873"
       d="m 703.8,91.8 0,428.4" /></g><g
     id="g4875"
     style="fill:none;stroke:#000000;stroke-width:0.8613848;stroke-linecap:butt;stroke-linejoin:miter;stroke-dasharray:0.93832771,2.81498317;stroke-miterlimit:4;stroke-dashoffset:0"
     transform="matrix(0.34861118,0,0,-0.34794195,4.5710547,181.68941)"><path
       style="stroke-width:0.8613848;stroke-miterlimit:4;stroke-dasharray:0.93832771,2.81498317;stroke-dashoffset:0"
       inkscape:connector-curvature="0"
       id="path4877"
       d="m 91.8,124.7538 612,0" /><path
       style="stroke-width:0.8613848;stroke-miterlimit:4;stroke-dasharray:0.93832771,2.81498317;stroke-dashoffset:0"
       inkscape:connector-curvature="0"
       id="path4879"
       d="m 91.8,157.7077 612,0" /><path
       style="stroke-width:0.8613848;stroke-miterlimit:4;stroke-dasharray:0.93832771,2.81498317;stroke-dashoffset:0"
       inkscape:connector-curvature="0"
       id="path4881"
       d="m 91.8,190.6615 612,0" /><path
       style="stroke-width:0.8613848;stroke-miterlimit:4;stroke-dasharray:0.93832771,2.81498317;stroke-dashoffset:0"
       inkscape:connector-curvature="0"
       id="path4883"
       d="m 91.8,223.6154 612,0" /><path
       style="stroke-width:0.8613848;stroke-miterlimit:4;stroke-dasharray:0.93832771,2.81498317;stroke-dashoffset:0"
       inkscape:connector-curvature="0"
       id="path4885"
       d="m 91.8,289.5231 612,0" /><path
       style="stroke-width:0.8613848;stroke-miterlimit:4;stroke-dasharray:0.93832771,2.81498317;stroke-dashoffset:0"
       inkscape:connector-curvature="0"
       id="path4887"
       d="m 91.8,322.4769 612,0" /><path
       style="stroke-width:0.8613848;stroke-miterlimit:4;stroke-dasharray:0.93832771,2.81498317;stroke-dashoffset:0"
       inkscape:connector-curvature="0"
       id="path4889"
       d="m 91.8,355.4308 612,0" /><path
       style="stroke-width:0.8613848;stroke-miterlimit:4;stroke-dasharray:0.93832771,2.81498317;stroke-dashoffset:0"
       inkscape:connector-curvature="0"
       id="path4891"
       d="m 91.8,388.3846 612,0" /><path
       style="stroke-width:0.8613848;stroke-miterlimit:4;stroke-dasharray:0.93832771,2.81498317;stroke-dashoffset:0"
       inkscape:connector-curvature="0"
       id="path4893"
       d="m 91.8,454.2923 612,0" /><path
       style="stroke-width:0.8613848;stroke-miterlimit:4;stroke-dasharray:0.93832771,2.81498317;stroke-dashoffset:0"
       inkscape:connector-curvature="0"
       id="path4895"
       d="m 91.8,487.2462 612,0" /><path
       style="stroke-width:0.8613848;stroke-miterlimit:4;stroke-dasharray:0.93832771,2.81498317;stroke-dashoffset:0"
       inkscape:connector-curvature="0"
       id="path4897"
       d="m 91.8,520.2 612,0" /></g><g
     id="g4899"
     style="fill:none;stroke:#000000;stroke-width:0.8613848;stroke-linecap:butt;stroke-linejoin:miter;stroke-dasharray:4.69163861,2.81498317;stroke-miterlimit:4;stroke-dashoffset:0"
     transform="matrix(0.34861118,0,0,-0.34794195,4.5710547,181.68941)"><path
       style="stroke-width:0.8613848;stroke-miterlimit:4;stroke-dasharray:4.69163861,2.81498317;stroke-dashoffset:0"
       inkscape:connector-curvature="0"
       id="path4901"
       d="m 91.8,91.8 612,0" /><path
       style="stroke-width:0.8613848;stroke-miterlimit:4;stroke-dasharray:4.69163861,2.81498317;stroke-dashoffset:0"
       inkscape:connector-curvature="0"
       id="path4903"
       d="m 91.8,256.5692 612,0" /><path
       style="stroke-width:0.8613848;stroke-miterlimit:4;stroke-dasharray:4.69163861,2.81498317;stroke-dashoffset:0"
       inkscape:connector-curvature="0"
       id="path4905"
       d="m 91.8,421.3385 612,0" /></g><g
     id="g4907"
     style="fill:none;stroke:#000000;stroke-width:2.00989786;stroke-linecap:butt;stroke-linejoin:miter;stroke-dasharray:14.23130374,6.56829404;stroke-miterlimit:4;stroke-dashoffset:0"
     transform="matrix(0.34861118,0,0,-0.34794195,4.5710547,181.68941)"><path
       style="stroke-width:2.00989786;stroke-miterlimit:4;stroke-dasharray:14.23130374,6.56829404;stroke-dashoffset:0"
       inkscape:connector-curvature="0"
       id="path4909"
       d="m 91.8,110.6824 6.397,0.0439 1.4095,0.0615 1.5588,0.114 1.7869,0.2018 2.0172,0.3244 2.2704,0.4822 2.5654,0.6751 2.9111,0.903 3.3102,1.166 3.763,1.4641 3.4989,1.464 3.3245,1.464 3.1993,1.4641 3.1044,1.464 3.0297,1.4641 2.9693,1.464 2.9194,1.464 2.8775,1.4641 2.8419,1.464 2.8112,1.4641 2.7846,1.464 2.7612,1.464 2.7408,1.4641 2.7224,1.464 2.7062,1.4641 2.6916,1.464 2.6785,1.464 2.6665,1.4641 2.6557,1.464 2.646,1.4641 2.6369,1.464 2.6286,1.464 2.6211,1.4641 2.6141,1.464 2.6077,1.4641 2.6016,1.464 2.5962,1.464 2.5909,1.4641 2.5862,1.464 2.5817,1.4641 2.5775,1.464 2.5735,1.4641 2.5699,1.464 2.5664,1.464 2.5632,1.4641 2.56,1.464 2.5572,1.4641 2.5545,1.464 2.5518,1.464 2.5494,1.4641 2.5471,1.464 2.5449,1.4641 2.5428,1.464 2.5408,1.464 2.5388,1.4641 2.5371,1.464 2.5353,1.4641 2.5337,1.464 2.5321,1.464 2.5306,1.4641 2.5292,1.464 2.5278,1.4641 2.5264,1.464 2.5252,1.464 2.5239,1.4641 2.5228,1.464 2.5216,1.4641 2.5205,1.464 2.5195,1.464 2.5184,1.4641 2.5175,1.464 2.5165,1.4641 2.5157,1.464 2.5147,1.4641 2.5139,1.464 2.513,1.464 2.5122,1.4641 2.5115,1.464 2.5107,1.4641 2.51,1.464 2.5092,1.464 2.5086,1.4641 2.5078,1.464 2.5073,1.4641 2.5065,1.464 2.506,1.464 2.5054,1.4641 2.5047,1.464 2.5042,1.4641 2.5036,1.464 2.5031,1.464 2.5025,1.4641 2.502,1.464 2.5015,1.4641 2.501,1.464 2.5004,1.464 2.5,1.4641 2.4995,1.464 2.4991,1.4641 2.4986,1.464 2.4981,1.4641 2.4977,1.464 2.4973,1.464 2.4968,1.4641 2.4964,1.464 2.496,1.464 2.4956,1.4641 2.4952,1.464 2.4948,1.4641 2.4944,1.464 2.494,1.464 2.4937,1.4641 2.4932,1.464 2.4929,1.4641 2.4926,1.464 2.4921,1.4641 2.4918,1.464 2.4915,1.464 2.4911,1.4641 2.4908,1.464 2.4904,1.4641 2.4901,1.464 2.4897,1.4641 2.4894,1.464 2.4891,1.464 2.4888,1.4641 2.4884,1.464 2.4881,1.4641 2.4878,1.464 2.4875,1.464 2.4872,1.4641 2.4868,1.464 2.4865,1.4641 2.4862,1.464 2.486,1.464 2.4856,1.4641 2.4853,1.464 2.485,1.4641 2.4847,1.464 2.4844,1.464 2.4841,1.4641 2.4838,1.464 2.4835,1.4641 2.4832,1.464 2.483,1.464 2.4826,1.4641 2.4823,1.464 2.4821,1.4641 2.4817,1.464 2.4815,1.464 2.4811,1.4641 2.4809,1.464 2.4806,1.4641 2.4803,1.464 2.48,1.464 2.4798,1.4641 2.4794,1.464 2.4792,1.4641 2.4789,1.464 2.4785,1.4641 2.4783,1.464 2.478,1.464 2.4777,1.4641 2.4775,1.464 2.4771,1.4641 2.4769,1.464 2.4766,1.464 2.4763,1.4641 2.476,1.464 2.4757,1.4641 2.4755,1.464 2.4751,1.464 2.4749,1.4641 2.4746,1.464 2.4742,1.4641 2.474,1.464 2.4737,1.464 2.4735,1.4641 2.4731,1.464 2.4728,1.4641 2.4726,1.464 2.4722,1.464 2.472,1.4641 2.4716,1.464 2.4714,1.4641 2.4711,1.464 2.4708,1.464 2.4705,1.4641 2.4702,1.464 2.4699,1.4641 2.4696,1.464 2.4693,1.464 2.469,1.4641 2.4687,1.464 2.4684,1.4641 2.4681,1.464 2.4679,1.4641 2.4675,1.464 2.4671,1.464 2.467,1.4641 2.4665,1.464 2.4663,1.4641 2.466,1.464 2.4656,1.464 2.4654,1.4641 2.465,1.464 2.4647,1.4641 2.4645,1.464 2.4641,1.464 2.4638,1.4641 2.4634,1.464 2.4632,1.4641 2.4628,1.464 2.4625,1.464 2.4622,1.4641 2.4619,1.464 2.4615,1.4641 2.4612,1.464 2.4609,1.464 2.4606,1.4641 2.4602,1.464 2.4599,1.4641 2.4596,1.464 2.4593,1.464 2.4589,1.4641 2.4586,1.464 2.4582,1.4641 2.4579,1.464 2.4575,1.464 2.4572,1.4641 2.4569,1.464 2.4566,1.4641 2.4562,1.464 2.4558,1.4641 2.4555,1.464 2.4551,1.464 2.4548,1.4641 2.4544,1.464 2.4541,1.4641 2.4538,1.464 2.35,1.4024" /></g><g
     id="g4911"
     style="fill:none;stroke:#000000;stroke-width:2.00989786;stroke-linecap:butt;stroke-linejoin:miter;stroke-dasharray:none;stroke-miterlimit:4"
     transform="matrix(0.34861118,0,0,-0.34794195,4.5710547,181.68941)"><path
       style="stroke-width:2.00989786;stroke-miterlimit:4;stroke-dasharray:none"
       inkscape:connector-curvature="0"
       id="path4913"
       d="m 91.8,139.0226 12.6918,0.0431 2.7324,0.0602 2.9433,0.1119 3.2491,0.1978 3.4971,0.3181 3.7319,0.4729 3.9928,0.6621 4.2998,0.8855 4.6615,1.1434 5.0811,1.4357 4.5701,1.4357 4.2366,1.4357 3.9993,1.4357 3.82,1.4357 3.6791,1.4357 3.5647,1.4357 3.4698,1.4357 3.3894,1.4357 3.3204,1.4357 3.2603,1.4357 3.2073,1.4357 3.1605,1.4357 3.1184,1.4357 3.0807,1.4357 3.0464,1.4357 3.0153,1.4357 2.9867,1.4357 2.9606,1.4357 2.9365,1.4357 2.9142,1.4357 2.8935,1.4357 2.8743,1.4357 2.8563,1.4357 2.8396,1.4357 2.8238,1.4357 2.8092,1.4357 2.7952,1.4357 2.7823,1.4357 2.7699,1.4357 2.7583,1.4357 2.7473,1.4357 2.7369,1.4357 2.7271,1.4357 2.7176,1.4357 2.7087,1.4357 2.7002,1.4357 2.6921,1.4357 2.6844,1.4357 2.677,1.4357 2.67,1.4357 2.6633,1.4357 2.6568,1.4357 2.6506,1.4357 2.6447,1.4357 2.6391,1.4357 2.6335,1.4357 2.6284,1.4357 2.6233,1.4357 2.6184,1.4357 2.6138,1.4357 2.6093,1.4357 2.605,1.4357 2.6008,1.4357 2.5968,1.4357 2.5928,1.4357 2.5891,1.4357 2.5855,1.4357 2.582,1.4357 2.5786,1.4357 2.5753,1.4357 2.5721,1.4357 2.569,1.4357 2.5661,1.4357 2.5631,1.4357 2.5603,1.4357 2.5576,1.4357 2.555,1.4357 2.5524,1.4357 2.5499,1.4357 2.5475,1.4357 2.5451,1.4357 2.5428,1.4357 2.5405,1.4357 2.5384,1.4357 2.5363,1.4357 2.5342,1.4357 2.5322,1.4357 2.5303,1.4357 2.5283,1.4357 2.5265,1.4357 2.5247,1.4357 2.5228,1.4357 2.5212,1.4357 2.5194,1.4357 2.5179,1.4357 2.5161,1.4357 2.5147,1.4357 2.513,1.4357 2.5116,1.4357 2.5101,1.4357 2.5086,1.4357 2.5072,1.4357 2.5058,1.4357 2.5045,1.4357 2.5032,1.4357 2.5018,1.4357 2.5006,1.4357 2.4993,1.4357 2.4981,1.4357 2.4968,1.4357 2.4957,1.4357 2.4945,1.4357 2.4934,1.4357 2.4923,1.4357 2.4912,1.4358 2.4901,1.4357 2.489,1.4357 2.488,1.4357 2.4869,1.4357 2.486,1.4357 2.4849,1.4357 2.484,1.4357 2.483,1.4357 2.4821,1.4357 2.4811,1.4357 2.4803,1.4357 2.4793,1.4357 2.4784,1.4357 2.4775,1.4357 2.4767,1.4357 2.4759,1.4357 2.4749,1.4357 2.4742,1.4357 2.4733,1.4357 2.4725,1.4357 2.4718,1.4357 2.4709,1.4357 2.4702,1.4357 2.4694,1.4357 2.4686,1.4357 2.4679,1.4357 2.4671,1.4357 2.4664,1.4357 2.4657,1.4357 2.465,1.4357 2.4642,1.4357 2.4636,1.4357 2.4629,1.4357 2.4622,1.4357 2.4615,1.4357 2.4608,1.4357 2.4602,1.4357 2.4595,1.4357 2.4588,1.4357 2.4582,1.4357 2.4576,1.4357 2.4569,1.4357 2.4563,1.4357 2.4557,1.4357 2.4551,1.4357 2.4544,1.4357 2.4539,1.4357 2.4532,1.4357 2.4527,1.4357 2.452,1.4357 2.4514,1.4357 2.4509,1.4357 2.4503,1.4357 2.4497,1.4357 2.4491,1.4357 2.4486,1.4357 2.448,1.4357 2.4474,1.4357 2.4469,1.4357 2.4463,1.4357 2.4458,1.4357 2.4452,1.4357 2.4447,1.4357 2.4441,1.4357 2.4436,1.4357 2.443,1.4357 2.4425,1.4357 2.442,1.4357 2.4415,1.4357 2.4409,1.4357 2.4404,1.4357 2.4399,1.4357 2.4393,1.4357 2.4389,1.4357 2.4383,1.4357 2.4378,1.4357 2.4373,1.4357 2.4368,1.4357 2.4363,1.4357 2.4357,1.4357 2.4353,1.4357 2.4347,1.4357 2.4343,1.4357 2.4338,1.4357 2.4332,1.4357 2.4328,1.4357 2.4323,1.4357 2.4317,1.4357 2.4313,1.4357 2.4308,1.4357 2.4303,1.4357 2.4298,1.4357 2.4293,1.4357 2.4288,1.4357 2.4283,1.4357 2.4279,1.4357 2.4273,1.4357 2.4269,1.4357 2.4264,1.4357 2.4259,1.4357 2.4254,1.4357 2.4249,1.4357 2.4244,1.4357 2.424,1.4357 2.4235,1.4357 2.423,1.4357 2.4225,1.4357 2.422,1.4357 2.4216,1.4357 2.4211,1.4357 2.4206,1.4357 2.4201,1.4357 1.8336,1.088" /></g><g
     id="g4915"
     style="fill:none;stroke:#000000;stroke-width:2.00989786;stroke-linecap:butt;stroke-linejoin:miter;stroke-dasharray:2.18943136,6.56829404,9.85244106,6.56829404;stroke-miterlimit:4;stroke-dashoffset:0"
     transform="matrix(0.34861118,0,0,-0.34794195,4.5710547,181.68941)"><path
       style="stroke-width:2.00989786;stroke-miterlimit:4;stroke-dasharray:2.18943136,6.56829404,9.85244106,6.56829404;stroke-dashoffset:0"
       inkscape:connector-curvature="0"
       id="path4917"
       d="m 91.8,186.3639 21.2184,0.0416 4.5284,0.0583 4.8325,0.1082 5.2479,0.1912 5.5199,0.3077 5.7258,0.4573 5.9343,0.6402 6.1803,0.8563 6.4791,1.1057 6.8371,1.3884 5.9805,1.3884 5.4242,1.3883 5.03,1.3884 4.7339,1.3883 4.5024,1.3884 4.3153,1.3884 4.1609,1.3883 4.0304,1.3884 3.919,1.3883 3.822,1.3884 3.7371,1.3883 3.6618,1.3884 3.5945,1.3884 3.534,1.3883 3.4791,1.3884 3.4293,1.3883 3.3835,1.3884 3.3415,1.3884 3.3027,1.3883 3.2668,1.3884 3.2333,1.3883 3.2021,1.3884 3.173,1.3884 3.1456,1.3883 3.1199,1.3884 3.0957,1.3883 3.0728,1.3884 3.0512,1.3884 3.0308,1.3883 3.0113,1.3884 2.9928,1.3883 2.9753,1.3884 2.9585,1.3884 2.9425,1.3883 2.9272,1.3884 2.9126,1.3883 2.8987,1.3884 2.8852,1.3883 2.8723,1.3884 2.86,1.3884 2.8482,1.3883 2.8366,1.3884 2.8257,1.3883 2.8151,1.3884 2.8049,1.3884 2.795,1.3883 2.7855,1.3884 2.7763,1.3883 2.7675,1.3884 2.7588,1.3884 2.7505,1.3883 2.7424,1.3884 2.7347,1.3883 2.7271,1.3884 2.7197,1.3883 2.7126,1.3884 2.7058,1.3884 2.699,1.3883 2.6924,1.3884 2.6862,1.3884 2.68,1.3883 2.674,1.3884 2.6682,1.3883 2.6625,1.3884 2.657,1.3883 2.6515,1.3884 2.6464,1.3884 2.6412,1.3883 2.6363,1.3884 2.6314,1.3883 2.6266,1.3884 2.622,1.3884 2.6175,1.3883 2.6131,1.3884 2.6087,1.3883 2.6046,1.3884 2.6004,1.3884 2.5964,1.3883 2.5925,1.3884 2.5886,1.3883 2.5848,1.3884 2.5812,1.3884 2.5775,1.3883 2.5741,1.3884 2.5705,1.3883 2.5672,1.3884 2.5638,1.3883 2.5606,1.3884 2.5574,1.3884 2.5543,1.3883 2.5512,1.3884 2.5482,1.3883 2.5453,1.3884 2.5423,1.3884 2.5396,1.3883 2.5367,1.3884 2.534,1.3883 2.5313,1.3884 2.5287,1.3884 2.526,1.3883 2.5236,1.3884 2.521,1.3883 2.5186,1.3884 2.5161,1.3884 2.5138,1.3883 2.5114,1.3884 2.5092,1.3883 2.5069,1.3884 2.5046,1.3883 2.5024,1.3884 2.5004,1.3884 2.4981,1.3883 2.4961,1.3884 2.4941,1.3883 2.492,1.3884 2.49,1.3884 2.488,1.3883 2.4862,1.3884 2.4842,1.3884 2.4823,1.3883 2.4805,1.3884 2.4786,1.3883 2.4769,1.3884 2.4751,1.3883 2.4733,1.3884 2.4716,1.3884 2.4699,1.3883 2.4682,1.3884 2.4665,1.3883 2.4649,1.3884 2.4633,1.3883 2.4617,1.3884 2.4602,1.3884 2.4585,1.3883 2.457,1.3884 2.4556,1.3884 2.454,1.3883 2.4525,1.3884 2.4511,1.3883 2.4496,1.3884 2.4482,1.3883 2.4468,1.3884 2.4454,1.3884 2.444,1.3883 2.4426,1.3884 2.4413,1.3883 2.4399,1.3884 2.4386,1.3884 2.4374,1.3883 2.436,1.3884 2.4347,1.3883 2.4335,1.3884 2.4322,1.3884 2.431,1.3883 2.4297,1.3884 2.4285,1.3883 2.4274,1.3884 2.4261,1.3884 2.4249,1.3883 2.4238,1.3884 2.4226,1.3883 2.4215,1.3884 2.4203,1.3883 2.4192,1.3884 2.418,1.3884 2.417,1.3883 2.4158,1.3884 2.4148,1.3883 2.4137,1.3884 2.4126,1.3884 2.4115,1.3883 2.4105,1.3884 2.4094,1.3883 2.4084,1.3884 2.4074,1.3884 2.4063,1.3883 2.4054,1.3884 2.4043,1.3883 2.4033,1.3884 2.4023,1.3884 2.4013,1.3883 2.4004,1.3884 2.3993,1.3883 2.3984,1.3884 2.3974,1.3883 2.3965,1.3884 2.3956,1.3884 2.3946,1.3883 2.3937,1.3884 2.3927,1.3883 2.3918,1.3884 2.3909,1.3884 2.3899,1.3883 2.3891,1.3884 2.3881,1.3883 2.3873,1.3884 2.3864,1.3884 2.3855,1.3883 0.307,0.1788" /></g><g
     id="g4919"
     style="fill:none;stroke:#000000;stroke-width:2.00989786;stroke-linecap:butt;stroke-linejoin:miter;stroke-dasharray:9.85244106,6.56829404,2.18943136,6.56829404,9.85244106,6.56829404;stroke-miterlimit:4;stroke-dashoffset:0"
     transform="matrix(0.34861118,0,0,-0.34794195,4.5710547,181.68941)"><path
       style="stroke-width:2.00989786;stroke-miterlimit:4;stroke-dasharray:9.85244106,6.56829404,2.18943136,6.56829404,9.85244106,6.56829404;stroke-dashoffset:0"
       inkscape:connector-curvature="0"
       id="path4921"
       d="m 91.8,281.8936 34.9418,0.0388 7.3865,0.0542 7.8725,0.1008 8.4825,0.1781 8.8011,0.2865 8.9609,0.4258 9.0795,0.5962 9.2179,0.7974 9.4031,1.0296 9.6466,1.2928 8.2224,1.2928 7.2988,1.2929 6.6451,1.2928 6.1551,1.2928 5.7725,1.2929 5.4641,1.2928 5.2099,1.2928 4.9959,1.2929 4.8133,1.2928 4.655,1.2928 4.5167,1.2928 4.3943,1.2929 4.2852,1.2928 4.1874,1.2928 4.0989,1.2929 4.0186,1.2928 3.9452,1.2928 3.8779,1.2928 3.8158,1.2929 3.7585,1.2928 3.7052,1.2928 3.6556,1.2929 3.6093,1.2928 3.5659,1.2928 3.5252,1.2928 3.4869,1.2929 3.4508,1.2928 3.4166,1.2928 3.3843,1.2929 3.3537,1.2928 3.3245,1.2928 3.2968,1.2929 3.2704,1.2928 3.2452,1.2928 3.2211,1.2928 3.1981,1.2929 3.176,1.2928 3.1549,1.2928 3.1345,1.2929 3.115,1.2928 3.0963,1.2928 3.0782,1.2929 3.0607,1.2928 3.0439,1.2928 3.0278,1.2928 3.012,1.2929 2.997,1.2928 2.9822,1.2928 2.9681,1.2929 2.9544,1.2928 2.941,1.2928 2.9282,1.2929 2.9156,1.2928 2.9035,1.2928 2.8916,1.2928 2.8802,1.2929 2.8689,1.2928 2.8582,1.2928 2.8475,1.2929 2.8372,1.2928 2.8273,1.2928 2.8174,1.2928 2.8079,1.2929 2.7986,1.2928 2.7895,1.2928 2.7806,1.2929 2.7721,1.2928 2.7635,1.2928 2.7553,1.2928 2.7472,1.2929 2.7394,1.2928 2.7316,1.2928 2.7241,1.2929 2.7166,1.2928 2.7094,1.2928 2.7024,1.2929 2.6954,1.2928 2.6886,1.2928 2.6819,1.2929 2.6754,1.2928 2.669,1.2928 2.6627,1.2928 2.6565,1.2929 2.6505,1.2928 2.6445,1.2928 2.6387,1.2929 2.633,1.2928 2.6274,1.2928 2.6219,1.2928 2.6164,1.2929 2.611,1.2928 2.6059,1.2928 2.6007,1.2929 2.5956,1.2928 2.5907,1.2928 2.5857,1.2928 2.581,1.2929 2.5762,1.2928 2.5715,1.2928 2.5669,1.2929 2.5624,1.2928 2.5579,1.2928 2.5536,1.2929 2.5492,1.2928 2.545,1.2928 2.5408,1.2928 2.5367,1.2929 2.5326,1.2928 2.5286,1.2928 2.5246,1.2929 2.5207,1.2928 2.5169,1.2928 2.5131,1.2928 2.5094,1.2929 2.5056,1.2928 2.5021,1.2928 2.4984,1.2929 2.4949,1.2928 2.4914,1.2928 2.4879,1.2928 2.4845,1.2929 2.4812,1.2928 2.4779,1.2928 2.4745,1.2929 2.4713,1.2928 2.4681,1.2928 2.465,1.2929 2.4618,1.2928 2.4588,1.2928 2.4557,1.2929 2.4527,1.2928 2.4496,1.2928 2.4468,1.2928 2.4438,1.2929 2.441,1.2928 2.4381,1.2928 2.4353,1.2929 2.4325,1.2928 2.4298,1.2928 2.427,1.2928 2.4243,1.2929 2.4217,1.2928 2.419,1.2928 2.4164,1.2929 2.4139,1.2928 2.4113,1.2928 2.4087,1.2928 2.4062,1.2929 2.4038,1.2928 2.4013,1.2928 2.3988,1.2929 2.3965,1.2928 2.394,1.2928 2.3917,1.2929 2.3894,1.2928 2.387,1.2928 2.3847,1.2928 2.3825,1.2929 2.3802,1.2928 2.3779,1.2928 2.3758,1.2929 2.3735,1.2928 2.3714,1.2928 2.3692,1.2928 2.3671,1.2929 2.3649,1.2928 2.3628,1.2928 0.3645,0.1996" /></g><g
     id="g4923"
     style="fill:none;stroke:#000000;stroke-width:2.63583732;stroke-linecap:butt;stroke-linejoin:miter;stroke-dasharray:none"
     transform="matrix(0.34861118,0,0,-0.34794195,4.5710547,181.68941)"><path
       style="stroke-width:2.63583732"
       inkscape:connector-curvature="0"
       id="path4925"
       d="m 91.8,91.8 612,0" /><path
       style="stroke-width:2.63583732"
       inkscape:connector-curvature="0"
       id="path4927"
       d="m 91.8,520.2 612,0" /></g><g
     id="g4929"
     style="fill:none;stroke:#000000;stroke-width:2.63583732;stroke-linecap:butt;stroke-linejoin:miter;stroke-dasharray:2.87128264, 8.61384793"
     transform="matrix(0.34861118,0,0,-0.34794195,4.5710547,181.68941)"><path
       style="stroke-width:2.63583732"
       inkscape:connector-curvature="0"
       id="path4931"
       d="m 122.4,91.8 0,6.12" /><path
       style="stroke-width:2.63583732"
       inkscape:connector-curvature="0"
       id="path4933"
       d="m 122.4,520.2 0,-6.12" /><path
       style="stroke-width:2.63583732"
       inkscape:connector-curvature="0"
       id="path4935"
       d="m 183.6,91.8 0,6.12" /><path
       style="stroke-width:2.63583732"
       inkscape:connector-curvature="0"
       id="path4937"
       d="m 183.6,520.2 0,-6.12" /><path
       style="stroke-width:2.63583732"
       inkscape:connector-curvature="0"
       id="path4939"
       d="m 244.8,91.8 0,6.12" /><path
       style="stroke-width:2.63583732"
       inkscape:connector-curvature="0"
       id="path4941"
       d="m 244.8,520.2 0,-6.12" /><path
       style="stroke-width:2.63583732"
       inkscape:connector-curvature="0"
       id="path4943"
       d="m 306,91.8 0,6.12" /><path
       style="stroke-width:2.63583732"
       inkscape:connector-curvature="0"
       id="path4945"
       d="m 306,520.2 0,-6.12" /><path
       style="stroke-width:2.63583732"
       inkscape:connector-curvature="0"
       id="path4947"
       d="m 367.2,91.8 0,6.12" /><path
       style="stroke-width:2.63583732"
       inkscape:connector-curvature="0"
       id="path4949"
       d="m 367.2,520.2 0,-6.12" /><path
       style="stroke-width:2.63583732"
       inkscape:connector-curvature="0"
       id="path4951"
       d="m 428.4,91.8 0,6.12" /><path
       style="stroke-width:2.63583732"
       inkscape:connector-curvature="0"
       id="path4953"
       d="m 428.4,520.2 0,-6.12" /><path
       style="stroke-width:2.63583732"
       inkscape:connector-curvature="0"
       id="path4955"
       d="m 489.6,91.8 0,6.12" /><path
       style="stroke-width:2.63583732"
       inkscape:connector-curvature="0"
       id="path4957"
       d="m 489.6,520.2 0,-6.12" /><path
       style="stroke-width:2.63583732"
       inkscape:connector-curvature="0"
       id="path4959"
       d="m 550.8,91.8 0,6.12" /><path
       style="stroke-width:2.63583732"
       inkscape:connector-curvature="0"
       id="path4961"
       d="m 550.8,520.2 0,-6.12" /><path
       style="stroke-width:2.63583732"
       inkscape:connector-curvature="0"
       id="path4963"
       d="m 612,91.8 0,6.12" /><path
       style="stroke-width:2.63583732"
       inkscape:connector-curvature="0"
       id="path4965"
       d="m 612,520.2 0,-6.12" /><path
       style="stroke-width:2.63583732"
       inkscape:connector-curvature="0"
       id="path4967"
       d="m 673.2,91.8 0,6.12" /><path
       style="stroke-width:2.63583732"
       inkscape:connector-curvature="0"
       id="path4969"
       d="m 673.2,520.2 0,-6.12" /></g><g
     id="g4971"
     style="fill:none;stroke:#000000;stroke-width:2.63583732;stroke-linecap:butt;stroke-linejoin:miter;stroke-dasharray:14.35641322, 8.61384793"
     transform="matrix(0.34861118,0,0,-0.34794195,4.5710547,181.68941)"><path
       style="stroke-width:2.63583732"
       inkscape:connector-curvature="0"
       id="path4973"
       d="m 91.8,91.8 0,12.24" /><path
       style="stroke-width:2.63583732"
       inkscape:connector-curvature="0"
       id="path4975"
       d="m 91.8,520.2 0,-12.24" /><path
       style="stroke-width:2.63583732"
       inkscape:connector-curvature="0"
       id="path4977"
       d="m 153,91.8 0,12.24" /><path
       style="stroke-width:2.63583732"
       inkscape:connector-curvature="0"
       id="path4979"
       d="m 153,520.2 0,-12.24" /><path
       style="stroke-width:2.63583732"
       inkscape:connector-curvature="0"
       id="path4981"
       d="m 214.2,91.8 0,12.24" /><path
       style="stroke-width:2.63583732"
       inkscape:connector-curvature="0"
       id="path4983"
       d="m 214.2,520.2 0,-12.24" /><path
       style="stroke-width:2.63583732"
       inkscape:connector-curvature="0"
       id="path4985"
       d="m 275.4,91.8 0,12.24" /><path
       style="stroke-width:2.63583732"
       inkscape:connector-curvature="0"
       id="path4987"
       d="m 275.4,520.2 0,-12.24" /><path
       style="stroke-width:2.63583732"
       inkscape:connector-curvature="0"
       id="path4989"
       d="m 336.6,91.8 0,12.24" /><path
       style="stroke-width:2.63583732"
       inkscape:connector-curvature="0"
       id="path4991"
       d="m 336.6,520.2 0,-12.24" /><path
       style="stroke-width:2.63583732"
       inkscape:connector-curvature="0"
       id="path4993"
       d="m 397.8,91.8 0,12.24" /><path
       style="stroke-width:2.63583732"
       inkscape:connector-curvature="0"
       id="path4995"
       d="m 397.8,520.2 0,-12.24" /><path
       style="stroke-width:2.63583732"
       inkscape:connector-curvature="0"
       id="path4997"
       d="m 459,91.8 0,12.24" /><path
       style="stroke-width:2.63583732"
       inkscape:connector-curvature="0"
       id="path4999"
       d="m 459,520.2 0,-12.24" /><path
       style="stroke-width:2.63583732"
       inkscape:connector-curvature="0"
       id="path5001"
       d="m 520.2,91.8 0,12.24" /><path
       style="stroke-width:2.63583732"
       inkscape:connector-curvature="0"
       id="path5003"
       d="m 520.2,520.2 0,-12.24" /><path
       style="stroke-width:2.63583732"
       inkscape:connector-curvature="0"
       id="path5005"
       d="m 581.4,91.8 0,12.24" /><path
       style="stroke-width:2.63583732"
       inkscape:connector-curvature="0"
       id="path5007"
       d="m 581.4,520.2 0,-12.24" /><path
       style="stroke-width:2.63583732"
       inkscape:connector-curvature="0"
       id="path5009"
       d="m 642.6,91.8 0,12.24" /><path
       style="stroke-width:2.63583732"
       inkscape:connector-curvature="0"
       id="path5011"
       d="m 642.6,520.2 0,-12.24" /><path
       style="stroke-width:2.63583732"
       inkscape:connector-curvature="0"
       id="path5013"
       d="m 703.8,91.8 0,12.24" /><path
       style="stroke-width:2.63583732"
       inkscape:connector-curvature="0"
       id="path5015"
       d="m 703.8,520.2 0,-12.24" /></g><g
     id="g5017"
     style="fill:#000000;fill-rule:nonzero"
     transform="matrix(0.34861118,0,0,-0.34794195,4.5710547,186.48941)"><text
       id="text5019"
       transform="matrix(0.028,0,0,-0.028,87.8,74.68)"
       style="font-style:normal;font-weight:normal;font-size:612px;font-family:Times, 'Nimbus Roman No9 L'">0</text>
<text
       id="text5021"
       transform="matrix(0.028,0,0,-0.028,149,74.68)"
       style="font-style:normal;font-weight:normal;font-size:612px;font-family:Times, 'Nimbus Roman No9 L'">2</text>
<text
       id="text5023"
       transform="matrix(0.028,0,0,-0.028,210.2,74.68)"
       style="font-style:normal;font-weight:normal;font-size:612px;font-family:Times, 'Nimbus Roman No9 L'">4</text>
<text
       id="text5025"
       transform="matrix(0.028,0,0,-0.028,271.4,73.68)"
       style="font-style:normal;font-weight:normal;font-size:612px;font-family:Times, 'Nimbus Roman No9 L'">6</text>
<text
       id="text5027"
       transform="matrix(0.028,0,0,-0.028,332.6,74.68)"
       style="font-style:normal;font-weight:normal;font-size:612px;font-family:Times, 'Nimbus Roman No9 L'">8</text>
<text
       id="text5029"
       transform="matrix(0.028,0,0,-0.028,389.3,73.68)"
       style="font-style:normal;font-weight:normal;font-size:612px;font-family:Times, 'Nimbus Roman No9 L'">10</text>
<text
       id="text5031"
       transform="matrix(0.028,0,0,-0.028,450.5,73.68)"
       style="font-style:normal;font-weight:normal;font-size:612px;font-family:Times, 'Nimbus Roman No9 L'">12</text>
<text
       id="text5033"
       transform="matrix(0.028,0,0,-0.028,511.7,73.68)"
       style="font-style:normal;font-weight:normal;font-size:612px;font-family:Times, 'Nimbus Roman No9 L'">14</text>
<text
       id="text5035"
       transform="matrix(0.028,0,0,-0.028,572.9,73.68)"
       style="font-style:normal;font-weight:normal;font-size:612px;font-family:Times, 'Nimbus Roman No9 L'">16</text>
<text
       id="text5037"
       transform="matrix(0.028,0,0,-0.028,634.1,73.68)"
       style="font-style:normal;font-weight:normal;font-size:612px;font-family:Times, 'Nimbus Roman No9 L'">18</text>
<text
       id="text5039"
       transform="matrix(0.028,0,0,-0.028,695.3,74.68)"
       style="font-style:normal;font-weight:normal;font-size:612px;font-family:Times, 'Nimbus Roman No9 L'">20</text>
</g><g
     id="g5041"
     style="fill:none;stroke:#000000;stroke-width:2.63583732;stroke-linecap:butt;stroke-linejoin:miter;stroke-dasharray:none"
     transform="matrix(0.34861118,0,0,-0.34794195,4.5710547,181.68941)"><path
       style="stroke-width:2.63583732"
       inkscape:connector-curvature="0"
       id="path5043"
       d="m 91.8,91.8 0,428.4" /><path
       style="stroke-width:2.63583732"
       inkscape:connector-curvature="0"
       id="path5045"
       d="m 703.8,91.8 0,428.4" /></g><g
     id="g5047"
     style="fill:none;stroke:#000000;stroke-width:2.63583732;stroke-linecap:butt;stroke-linejoin:miter;stroke-dasharray:2.87128264, 8.61384793"
     transform="matrix(0.34861118,0,0,-0.34794195,4.5710547,181.68941)"><path
       style="stroke-width:2.63583732"
       inkscape:connector-curvature="0"
       id="path5049"
       d="m 91.8,124.7538 6.12,0" /><path
       style="stroke-width:2.63583732"
       inkscape:connector-curvature="0"
       id="path5051"
       d="m 703.8,124.7538 -6.12,0" /><path
       style="stroke-width:2.63583732"
       inkscape:connector-curvature="0"
       id="path5053"
       d="m 91.8,157.7077 6.12,0" /><path
       style="stroke-width:2.63583732"
       inkscape:connector-curvature="0"
       id="path5055"
       d="m 703.8,157.7077 -6.12,0" /><path
       style="stroke-width:2.63583732"
       inkscape:connector-curvature="0"
       id="path5057"
       d="m 91.8,190.6615 6.12,0" /><path
       style="stroke-width:2.63583732"
       inkscape:connector-curvature="0"
       id="path5059"
       d="m 703.8,190.6615 -6.12,0" /><path
       style="stroke-width:2.63583732"
       inkscape:connector-curvature="0"
       id="path5061"
       d="m 91.8,223.6154 6.12,0" /><path
       style="stroke-width:2.63583732"
       inkscape:connector-curvature="0"
       id="path5063"
       d="m 703.8,223.6154 -6.12,0" /><path
       style="stroke-width:2.63583732"
       inkscape:connector-curvature="0"
       id="path5065"
       d="m 91.8,289.5231 6.12,0" /><path
       style="stroke-width:2.63583732"
       inkscape:connector-curvature="0"
       id="path5067"
       d="m 703.8,289.5231 -6.12,0" /><path
       style="stroke-width:2.63583732"
       inkscape:connector-curvature="0"
       id="path5069"
       d="m 91.8,322.4769 6.12,0" /><path
       style="stroke-width:2.63583732"
       inkscape:connector-curvature="0"
       id="path5071"
       d="m 703.8,322.4769 -6.12,0" /><path
       style="stroke-width:2.63583732"
       inkscape:connector-curvature="0"
       id="path5073"
       d="m 91.8,355.4308 6.12,0" /><path
       style="stroke-width:2.63583732"
       inkscape:connector-curvature="0"
       id="path5075"
       d="m 703.8,355.4308 -6.12,0" /><path
       style="stroke-width:2.63583732"
       inkscape:connector-curvature="0"
       id="path5077"
       d="m 91.8,388.3846 6.12,0" /><path
       style="stroke-width:2.63583732"
       inkscape:connector-curvature="0"
       id="path5079"
       d="m 703.8,388.3846 -6.12,0" /><path
       style="stroke-width:2.63583732"
       inkscape:connector-curvature="0"
       id="path5081"
       d="m 91.8,454.2923 6.12,0" /><path
       style="stroke-width:2.63583732"
       inkscape:connector-curvature="0"
       id="path5083"
       d="m 703.8,454.2923 -6.12,0" /><path
       style="stroke-width:2.63583732"
       inkscape:connector-curvature="0"
       id="path5085"
       d="m 91.8,487.2462 6.12,0" /><path
       style="stroke-width:2.63583732"
       inkscape:connector-curvature="0"
       id="path5087"
       d="m 703.8,487.2462 -6.12,0" /><path
       style="stroke-width:2.63583732"
       inkscape:connector-curvature="0"
       id="path5089"
       d="m 91.8,520.2 6.12,0" /><path
       style="stroke-width:2.63583732"
       inkscape:connector-curvature="0"
       id="path5091"
       d="m 703.8,520.2 -6.12,0" /></g><g
     id="g5093"
     style="fill:none;stroke:#000000;stroke-width:2.63583732;stroke-linecap:butt;stroke-linejoin:miter;stroke-dasharray:14.35641322, 8.61384793"
     transform="matrix(0.34861118,0,0,-0.34794195,4.5710547,181.68941)"><path
       style="stroke-width:2.63583732"
       inkscape:connector-curvature="0"
       id="path5095"
       d="m 91.8,91.8 12.24,0" /><path
       style="stroke-width:2.63583732"
       inkscape:connector-curvature="0"
       id="path5097"
       d="m 703.8,91.8 -12.24,0" /><path
       style="stroke-width:2.63583732"
       inkscape:connector-curvature="0"
       id="path5099"
       d="m 91.8,256.5692 12.24,0" /><path
       style="stroke-width:2.63583732"
       inkscape:connector-curvature="0"
       id="path5101"
       d="m 703.8,256.5692 -12.24,0" /><path
       style="stroke-width:2.63583732"
       inkscape:connector-curvature="0"
       id="path5103"
       d="m 91.8,421.3385 12.24,0" /><path
       style="stroke-width:2.63583732"
       inkscape:connector-curvature="0"
       id="path5105"
       d="m 703.8,421.3385 -12.24,0" /></g><g
     id="g5107"
     style="fill:#000000;fill-rule:nonzero"
     transform="matrix(0.34861118,0,0,-0.34794195,-1.8289453,181.68941)"><text
       id="text5109"
       transform="matrix(0.028,0,0,-0.028,77.68,86.3)"
       style="font-style:normal;font-weight:normal;font-size:612px;font-family:Times, 'Nimbus Roman No9 L'">0</text>
<text
       id="text5111"
       transform="matrix(0.028,0,0,-0.028,68.68,250.5692)"
       style="font-style:normal;font-weight:normal;font-size:612px;font-family:Times, 'Nimbus Roman No9 L'">10</text>
<text
       id="text5113"
       transform="matrix(0.028,0,0,-0.028,68.68,415.8385)"
       style="font-style:normal;font-weight:normal;font-size:612px;font-family:Times, 'Nimbus Roman No9 L'">20</text>
</g><g
     id="g5115"
     style="fill:none;stroke:#000000;stroke-width:1.43564133;stroke-linecap:butt;stroke-linejoin:miter;stroke-dasharray:none;stroke-miterlimit:4"
     transform="matrix(0.34861118,0,0,-0.34794195,4.5710547,181.68941)"><path
       style="stroke-width:1.43564133;stroke-miterlimit:4;stroke-dasharray:none"
       inkscape:connector-curvature="0"
       id="path5117"
       d="m 91.8,91.8 0,428.4 612,0 0,-428.4 z" /></g><g
     id="g5119"
     style="fill:#ffffff;fill-rule:nonzero"
     transform="matrix(0.34861118,0,0,-0.34794195,4.5710547,181.68941)"><path
       inkscape:connector-curvature="0"
       id="path5121"
       d="m 122.4,520.2 0,-200 173.318,0 0,200 z" /></g><g
     id="g5123"
     style="fill:#f9f9f9;stroke:none;stroke-width:2.63583755;stroke-linecap:butt;stroke-linejoin:miter;stroke-miterlimit:4;stroke-dasharray:none"
     transform="matrix(0.34861118,0,0,-0.34794195,4.5710547,183.28941)"><path
       style="fill:#f9f9f9;stroke:none;stroke-width:2.63583755;stroke-miterlimit:4;stroke-dasharray:none"
       inkscape:connector-curvature="0"
       id="path5125"
       d="m 122.4,520.2 0,-200 173.318,0 0,200 z" /></g><g
     id="g5127"
     style="fill:#000000;fill-rule:nonzero"
     transform="matrix(0.34861118,0,0,-0.34794195,4.5710547,186.48941)"><text
       id="text5129"
       transform="matrix(0.028,0,0,-0.028,215.118,477.6)"
       style="font-style:normal;font-weight:normal;font-size:612px;font-family:Times, 'Nimbus Roman No9 L'">50</text>
</g><g
     id="g5131"
     style="fill:none;stroke:#000000;stroke-width:0.95382541;stroke-linecap:butt;stroke-linejoin:miter;stroke-miterlimit:4;stroke-dasharray:6.75366667, 3.11707692;stroke-dashoffset:0"
     transform="matrix(0.73459234,0,0,-0.73318214,-64.287213,372.79157)"><path
       style="stroke-width:0.95382541;stroke-miterlimit:4;stroke-dasharray:6.75366667, 3.11707692;stroke-dashoffset:0"
       inkscape:connector-curvature="0"
       id="path5133"
       d="m 153.918,483.6 24.48,0" /></g><g
     id="g5135"
     style="fill:#000000;fill-rule:nonzero"
     transform="matrix(0.34861118,0,0,-0.34794195,4.5710547,186.48941)"><text
       id="text5137"
       transform="matrix(0.028,0,0,-0.028,215.118,436)"
       style="font-style:normal;font-weight:normal;font-size:612px;font-family:Times, 'Nimbus Roman No9 L'">20</text>
</g><g
     id="g5139"
     style="fill:none;stroke:#000000;stroke-width:0.95382541;stroke-linecap:butt;stroke-linejoin:miter;stroke-miterlimit:4;stroke-dasharray:none"
     transform="matrix(0.73459234,0,0,-0.73318214,-64.287213,356.57296)"><path
       style="stroke-width:0.95382541;stroke-miterlimit:4;stroke-dasharray:none"
       inkscape:connector-curvature="0"
       id="path5141"
       d="m 153.918,441.5 24.48,0" /></g><g
     id="g5143"
     style="fill:#000000;fill-rule:nonzero"
     transform="matrix(0.34861118,0,0,-0.34794195,4.5710547,186.48941)"><text
       id="text5145"
       transform="matrix(0.028,0,0,-0.028,215.118,393.4)"
       style="font-style:normal;font-weight:normal;font-size:612px;font-family:Times, 'Nimbus Roman No9 L'">10</text>
</g><g
     id="g5147"
     style="fill:none;stroke:#000000;stroke-width:0.97082907;stroke-linecap:butt;stroke-linejoin:miter;stroke-miterlimit:4;stroke-dasharray:1.05754806, 3.17264418, 4.75896627, 3.17264418;stroke-dashoffset:0"
     transform="matrix(0.72172631,0,0,-0.72034081,-61.991937,335.22552)"><path
       style="stroke-width:0.97082907;stroke-miterlimit:4;stroke-dasharray:1.05754806, 3.17264418, 4.75896627, 3.17264418;stroke-dashoffset:0"
       inkscape:connector-curvature="0"
       id="path5149"
       d="m 153.918,399.4 24.48,0" /></g><g
     id="g5151"
     style="fill:#000000;fill-rule:nonzero"
     transform="matrix(0.34861118,0,0,-0.34794195,4.5710547,186.48941)"><text
       id="text5153"
       transform="matrix(0.028,0,0,-0.028,215.118,350.8)"
       style="font-style:normal;font-weight:normal;font-size:612px;font-family:Times, 'Nimbus Roman No9 L'">  5</text>
</g><g
     id="g5155"
     style="fill:none;stroke:#000000;stroke-width:0.90620995;stroke-linecap:butt;stroke-linejoin:miter;stroke-miterlimit:4;stroke-dasharray:4.44220575, 2.96147051, 0.98715684, 2.96147051, 4.44220575, 2.96147051;stroke-dashoffset:0"
     transform="matrix(0.77319046,0,0,-0.77170616,-71.17304,337.68849)"><path
       style="stroke-width:0.90620995;stroke-miterlimit:4;stroke-dasharray:4.44220575, 2.96147051, 0.98715684, 2.96147051, 4.44220575, 2.96147051;stroke-dashoffset:0"
       inkscape:connector-curvature="0"
       id="path5157"
       d="m 153.918,356.8 24.48,0" /></g><text
     xml:space="preserve"
     style="font-style:normal;font-weight:normal;font-size:6px;line-height:125%;font-family:Sans;letter-spacing:0px;word-spacing:0px;fill:#000000;fill-opacity:1;stroke:none;stroke-width:1px;stroke-linecap:butt;stroke-linejoin:miter;stroke-opacity:1"
     x="141.73228"
     y="169.44881"
     id="text5693"
     sodipodi:linespacing="125%"><tspan
       sodipodi:role="line"
       id="tspan5695"
       x="141.73228"
       y="169.44881">$\theta_c (^\circ)$</tspan></text>
<text
     xml:space="preserve"
     style="font-style:normal;font-weight:normal;font-size:6px;line-height:125%;font-family:Sans;letter-spacing:0px;word-spacing:0px;fill:#000000;fill-opacity:1;stroke:none;stroke-width:1px;stroke-linecap:butt;stroke-linejoin:miter;stroke-opacity:1"
     x="-107.57377"
     y="12.791827"
     id="text5697"
     sodipodi:linespacing="125%"
     transform="matrix(-0.00422004,-0.9999911,0.9999911,-0.00422004,0,0)"><tspan
       sodipodi:role="line"
       id="tspan5699"
       x="-107.57377"
       y="12.791827">$\sigma (^\circ)$</tspan></text>
<text
     xml:space="preserve"
     style="font-style:normal;font-weight:normal;font-size:6px;line-height:125%;font-family:Sans;letter-spacing:0px;word-spacing:0px;fill:#000000;fill-opacity:1;stroke:none;stroke-width:1px;stroke-linecap:butt;stroke-linejoin:miter;stroke-opacity:1"
     x="77.480316"
     y="8.869276"
     id="text5701"
     sodipodi:linespacing="125%"><tspan
       sodipodi:role="line"
       id="tspan5703"
       x="77.480316"
       y="8.869276">$M_0$</tspan></text>
</svg>